<svg version="1.1" id="Layer_1" xmlns="http://www.w3.org/2000/svg" xmlns:xlink="http://www.w3.org/1999/xlink" x="0px" y="0px"
	 width="393.268px" height="122px" viewBox="0 0 393.268 122" enable-background="new 0 0 393.268 122" xml:space="preserve">
<g>
	<path fill="#2C3D49" d="M103.796,16.311c0.132-4.286-0.879-5.526-5.796-6.607c-2.809-0.618-3.802-0.854-6.882-1.521
		c-3.967-0.858-6.442-0.636-6.442,4.022C84.41,14.75,62.824,7.919,62.824,5.671c0-3.757-0.216-5.153-4.609-5.526
		C56.158-0.03,47.669-0.057,45.612,0.119c-4.393,0.372-4.614,1.783-4.614,5.539c0,2.249-21.589,9.086-21.855,6.54
		c0-4.657-2.476-4.876-6.443-4.018C9.62,8.845,8.626,9.084,5.817,9.702C0.9,10.784-0.111,12.023,0.021,16.31
		c0.135,4.402-0.911,45.059,3.414,54.532C6.46,81.13,23.248,112.155,49.103,121.58c0.76,0.277,1.905,0.42,2.816,0.42h0.035
		c0.908,0,2.01-0.142,2.77-0.42c25.855-9.424,42.633-40.517,45.658-50.804C104.707,61.301,103.661,20.712,103.796,16.311
		 M81.384,78.233c-5.472,11.578-10.75,17.007-20.97,25.895c-2.875,2.376-3.925,3.306-6.805,4.656
		c-0.949,0.444-2.042,0.501-3.009,0.102c-2.557-1.055-4.403-2.449-7.197-4.758c-10.22-8.888-14.382-13.605-20.97-25.895
		c-7.587-14.152-6.028-27.488-6.103-42.112c-0.016-3.02,1.787-5.795,4.566-6.662c0.039-0.012,0.077-0.024,0.117-0.036
		c6.97-2.056,23.308-8.346,25.182-9.295c1.937-0.981,3.895-1.389,5.713-1.466c1.819,0.077,3.777,0.485,5.714,1.466
		c1.874,0.949,18.211,7.239,25.182,9.295c0.039,0.012,0.078,0.024,0.117,0.036c2.779,0.867,4.582,3.642,4.566,6.662
		C87.412,50.745,88.256,63.69,81.384,78.233"/>
	<path fill="#2C3D49" d="M71.596,37.395c-0.133-0.849-0.575-1.637-1.285-2.078c-0.647-0.402-1.489-0.508-2.037,1.05
		c-0.603,1.714,0.232,2.315-0.768,4.848v0.003c0-0.003-0.178,0.341-0.256,0.516c-2.618,5.21-5.479,4.369-9.365,1.46
		c-2.229-1.668-4.106-2.578-6.017-2.486c-1.911-0.092-3.732,0.818-5.961,2.486c-3.886,2.909-6.639,3.75-9.257-1.46
		c-0.078-0.175-0.144-0.519-0.144-0.516v-0.003c-1-2.533-0.278-3.134-0.881-4.848c-0.548-1.558-1.45-1.452-2.097-1.05
		c-0.71,0.441-1.178,1.229-1.311,2.078c-0.738,4.696,5.09,11.448,10.924,14.049c2.723,1.393,5.928,1.787,8.64,1.898
		c2.711-0.111,6.159-0.505,8.882-1.898C66.496,48.842,72.334,42.09,71.596,37.395"/>
	<path fill="#2C3D49" d="M76.406,58.357c-4.244-3.379-7.638-9.059-12.512-4.948c-4.081,2.638-7.715,3.955-12.268,3.832
		c0,0-7.278-0.666-11.883-3.832c-4.873-4.111-8.268,1.569-12.512,4.948c-0.55,0.438-2.533,2.405-1.878,3.197
		c0.633,0.766,2.506-0.505,3.699-1.243c3.684-2.278,4.51-3.144,6.017-3.801c1.388-0.606,2.298,0.385,2.374,1.091
		c0.185,1.723-0.346,3.041,0.162,7.375c0.112,0.952-0.297,1.864-0.865,2.646c-0.446,0.615-0.894,1.222-1.296,1.868
		c-0.999,1.604-3.035,4.282-3.3,5.953c-0.269,1.697-0.062,2.874,0.721,3.619c0.626,0.595,1.195,0.566,1.707-0.086
		c0.459-0.584-0.132-1.103,0.986-3.217c0,0,1.414-2.054,3.377-5.171c0.885-1.405,1.913-0.789,3.62,0.987
		c2.975,3.095,6.951,4.221,8.951,4.349v0.022c0-0.001-0.059-0.01,0-0.011c0.058,0.001,0,0.01,0,0.011v-0.022
		c3-0.128,6.288-1.254,9.263-4.349c1.707-1.776,2.925-2.392,3.81-0.987c1.963,3.117,3.438,5.171,3.438,5.171
		c1.119,2.114,0.558,2.633,1.017,3.217c0.512,0.652,1.097,0.681,1.723,0.086c0.783-0.745,0.998-1.922,0.728-3.619
		c-0.265-1.671-2.296-4.349-3.295-5.953c-0.403-0.646-0.848-1.253-1.295-1.868c-0.568-0.782-0.976-1.694-0.864-2.646
		c0.508-4.334-0.023-5.652,0.163-7.375c0.076-0.706,0.986-1.697,2.374-1.091c1.507,0.657,2.333,1.523,6.017,3.801
		c1.193,0.738,3.066,2.009,3.699,1.243C78.939,60.762,76.957,58.795,76.406,58.357"/>
	<path fill="#333333" d="M224.501,41.035c-0.391,2.243-0.332,4.154-0.361,6.001c-0.11,6.983,0.418,14.01-0.204,20.939
		c-0.74,18.242-13.509,23.456-22.525,21.828c0,0-9.212-1.187-13.41-8.334c-2.099-3.574-2.692-8.071-2.962-12.197
		c-0.471-7.183-0.065-14.42-0.176-21.632c-0.031-2.075,0.067-4.142-0.304-6.64h7.193c-0.273,3.354-0.566,6.538-0.615,9.727
		c-0.11,7.098-0.042,14.198-0.018,21.298c0.021,6.321,2.325,11.419,8.2,14.337c7.392,3.672,15.632,0.142,18.43-6.961
		c1.303-3.308,1.779-7.083,1.922-10.676c0.283-7.088,0.146-14.197,0.016-21.293c-0.036-1.941,0.084-3.943-0.369-6.398H224.501z"/>
	<path fill="#333333" d="M184.859,47.268c0-1.347-0.204-2.449-0.347-3.09c-0.145-0.64-0.426-1.17-0.844-1.589
		c-0.353-0.379-0.762-0.654-1.226-0.824c-0.465-0.17-1.076-0.275-1.835-0.314V41h6.632"/>
	<path fill="#333333" d="M187.239,41h8.288v0.451c-0.759,0.04-1.37,0.144-1.835,0.314c-0.464,0.17-0.873,0.445-1.226,0.824
		c-0.418,0.419-0.7,0.949-0.844,1.589c-0.143,0.641-0.347,1.743-0.347,3.09"/>
	<path fill="#333333" d="M219.707,47.268c0-1.347-0.204-2.449-0.348-3.09c-0.144-0.64-0.425-1.17-0.843-1.589
		c-0.353-0.379-0.762-0.654-1.226-0.824c-0.465-0.17-1.076-0.275-1.835-0.314V41h6.632"/>
	<path fill="#333333" d="M221.813,41h6.632v0.451c-0.758,0.04-1.37,0.144-1.834,0.314c-0.464,0.17-0.873,0.445-1.226,0.824
		c-0.419,0.419-0.7,0.949-0.844,1.589c-0.144,0.641-0.404,1.743-0.404,3.09"/>
	<path fill="#333333" d="M136.768,33.353c-0.005-0.009-0.008-0.019-0.013-0.028C136.725,33.34,136.737,33.348,136.768,33.353"/>
	<path fill="#333333" d="M167.833,66.959c-1.805-2.299-4.44-4.032-6.919-5.687c-1.864-1.245-2.537-2.059-1.073-4.24
		c1.67-2.487,2.93-5.306,4.01-8.119c2.269-5.907-1.067-12.075-7.031-14.406c-6.381-2.089-9.612-1.286-16.108-1.515
		c-0.424-0.015-3.635,0.413-3.945,0.36c1.265,2.278,1.37,5.896,1.4,8.615c0.142,12.888,0.148,25.779-0.004,38.667
		c-0.034,2.862,0.247,5.349-0.02,9.181c6.202-0.205,11.545,0.833,18.385-1.003c-2.022-0.813-4.074-0.982-6.127-1.145
		c-3.666-0.291-5.942-2.104-6-5.16c-0.114-6.104-0.121-12.213,0.037-18.314c0.023-0.883,0.238-2.662,1.867-2.494
		c4.952-0.562,9.648,0.012,13.548,3.706c5.187,4.912,6.627,13.899,2.701,18.726c-0.989,1.215-2.434,2.06-3.669,3.075
		c1.097,0.656,2.883,0.477,3.659,0.136C169.544,84.262,173.19,74.642,167.833,66.959 M158.434,53.432
		c-0.933,5.219-8.429,8.347-12.979,5.634c-1.122-0.491-1.012-1.524-1.049-2.42c-0.127-3.046-0.049-5.989-0.049-8.989h0.012
		c0-4,0.045-6.266-0.016-9.316c-0.042-2.106,0.816-3.093,2.989-3.212c6.061-0.331,10.249,2.622,11.136,8.704
		C158.938,46.988,158.993,50.307,158.434,53.432"/>
	<path fill="#333333" d="M164.311,86.258c0,0-2.509,2.95-13.673,3.557l-0.237-2.147c0,0-6.585-0.713,0.237,0.019
		c6.794,0.727,10.286-2.029,10.286-2.029L164.311,86.258z"/>
	<path fill="#333333" d="M138.107,39.644c0-1.331-0.285-2.688-0.427-3.321c-0.143-0.633-0.421-1.157-0.834-1.571
		c-0.349-0.374-0.753-0.645-1.211-0.814c-0.459-0.167-1.063-0.271-1.813-0.31l0.001-0.636h6.889"/>
	<path fill="#333333" d="M140.843,89.815h-6.889V89.37c0.749-0.039,1.353-0.143,1.812-0.311s0.863-0.438,1.212-0.813
		c0.413-0.414,0.691-0.938,0.833-1.57s0.428-1.991,0.428-3.322"/>
	<path fill="#333333" d="M259.471,42.729c-1.233,0.818-3.675,1.962-4.264,2.197c-5.472,2.178-8.797,6.496-9.832,11.926
		c-2.343,12.299,0.963,24.307,14.067,29.611c2.816,1.141,7.397,1.374,10.11,1.404c1.918,0.021,3.797-0.727,5.054-2.175
		c0.624-0.718,1.096-1.585,1.071-2.553c-0.114-4.563-0.063-9.131-0.291-13.686c-0.126-2.541,1.468-2.503,3.099-2.433
		c1.776,0.077,3.651-0.913,3.498,3.596c-0.131,3.859,0.009,7.561-0.275,11.364c-0.278,3.738-0.313,5.471-3.269,6.35
		c-9.375,2.789-18.39,1.986-27.284-1.978c-4.413-1.967-7.342-5.22-9.59-9.325c-6.003-10.966-1.405-25.227,6.97-30.965
		C250.799,44.511,255.083,41.168,259.471,42.729"/>
	<path fill="#333333" d="M260.415,41.456c3.568,0,6.348-0.602,11.185-0.233c2.366,0.145,4.685,0.942,7.049,1.256
		c2.226,0.295,4.593,0.954,4.593,0.954c-0.844,3.126-0.628,3.213-1.885,5.561c-5.421-6.379-13.502-5.257-20.6-6.532
		C260.802,42.03,260.369,41.888,260.415,41.456"/>
	<path fill="#333333" d="M283.241,43.433l-0.087,9.12l-0.45-0.004c-0.032-0.758-0.071-1.935-1.348-3.555
		c-0.365-0.465-0.708-0.856-1.279-1.48c-0.442-0.484-2.896-2.494-4.241-2.507"/>
	<path fill="#333333" d="M275.506,73.222c0-1.345-0.203-2.445-0.348-3.085c-0.144-0.639-0.424-1.168-0.842-1.586
		c-0.353-0.379-0.761-0.653-1.224-0.823c-0.464-0.169-1.074-0.274-1.832-0.313v-0.451h6.938"/>
	<path fill="#333333" d="M277.933,66.965h8.273v0.45c-0.757,0.04-1.368,0.144-1.832,0.314c-0.463,0.17-0.871,0.444-1.224,0.823
		c-0.417,0.418-0.698,0.946-0.842,1.586c-0.145,0.64-0.591,2.102-0.591,3.447"/>
	<path fill="#333333" d="M254.903,45.051c0,0,5.306-2.375,13.607-1.695c8.302,0.679-0.02-2.206-0.02-2.206
		c1.875,0.074-11.869-0.877-16.77,2.922C247.65,47.229,254.903,45.051,254.903,45.051"/>
	<path fill="#333333" d="M334.908,81.82c1.227,4.867-1.005,8.136-5.392,8.143c-8.847,0.016-17.521,0.033-26.366,0
		c-1.049-0.003-2.171,0-4.408,0c9.584-15.173,19.444-30.767,28.688-45.401l1.091-1.408c-8.751,0.836-18.168-1.966-25.919,2.927
		c-1.973-3.451-1.226-5.016,2.542-5.036c3.368-0.077,30.418-0.03,30.418-0.03s-1.493,2.285-2.388,3.682
		c-8.008,12.499-16.041,24.981-23.99,37.516c-0.663,1.045-1.948,3.135-2.909,4.488c2.49,0.15,4.236,0.052,5.474,0.082
		c4.364,0.11,8.735,0.135,13.1,0.016C329.054,86.684,332.938,86.418,334.908,81.82"/>
	<path fill="#333333" d="M312.803,43.157c-6.179,0.423-7.308,1.303-8.865,2.563c-1.069,0.867-2.389,2.434-2.709,2.915
		c-0.796,1.196-1.339,2.646-1.43,3.438l-0.44-0.01l2.257-11.05h6.974L312.803,43.157z"/>
	<path fill="#333333" d="M323.333,87.417c6.179-0.424,7.308-1.304,8.865-2.563c1.069-0.867,2.389-2.434,2.709-2.915
		c0.796-1.196,1.339-2.646,1.43-3.438l0.441,0.01l-2.341,11.453l-6.962,0.003L323.333,87.417z"/>
	<path fill="#333333" d="M391.682,41.159c-6.17,5.708-8.541,13.105-13.08,19.054c-6.124,8.026-3.652,17.136-3.887,25.907
		c-0.03,1.138,1.195,2.31,2.095,3.929h-9.837c2.354-7.269,1.468-14.473,0.885-21.553c-0.205-2.496-2.435-4.853-3.832-7.217
		c-2.338-3.95-4.622-7.939-7.172-11.751c-1.866-2.793-4.222-5.272-6.73-8.466c2.874,0,5.664,0.1,8.42,0.196
		c0.415,0.014,1.18,0.45,1.237,0.868c0.997,7.373,6.508,12.462,9.465,18.833c0.385,0.83,0.837,1.635,1.33,2.406
		c1.267,1.982,2.616,1.907,3.795-0.195c3.022-5.392,6.045-10.786,9.051-16.188c0.387-0.697,0.787-1.417,0.993-2.177
		c0.33-1.218,0.328-3.473,0.772-3.551C387.323,40.878,389.481,41.159,391.682,41.159"/>
	<path fill="#333333" d="M356.116,47.883c0-1.353-3.956-4.398-4.538-5.023c-0.355-0.381-1.173-0.86-1.639-1.031
		c-0.468-0.17-1.081-0.276-1.844-0.315v-0.453h6.662"/>
	<path fill="#333333" d="M354.66,41.061h8.325v0.453c-0.763,0.04-1.376,0.145-1.844,0.316c-0.466,0.171-1.167,0.559-1.231,1.17
		c-0.064,0.591-0.702,0.61-0.847,1.254c-0.145,0.644-0.35,1.75-0.35,3.103"/>
	<path fill="#333333" d="M385.987,44.805c0-1.353-1.411-0.712-1.31-1.56c0.081-0.675-0.756-1.243-1.222-1.414
		c-0.468-0.171-1.081-0.276-1.844-0.315v-0.454h8.104"/>
	<path fill="#333333" d="M381.613,41.062h11.655v0.453c-0.762,0.04-1.377,0.145-1.843,0.316s-0.877,0.446-1.231,0.827
		c-0.421,0.421-1.746,0.502-1.891,1.146s-1.646,1.777-1.646,3.13c0,0-0.568-6.556-5.044-5.419V41.062z"/>
	<path fill="#333333" d="M393.268,41.062c0,0-5.184,1.314-7.281,3.743c0,0-1.009-4.489-4.375-3.29"/>
</g>
</svg>